# xmcd CD database file
#
# Track frame offsets:
#	150
#	13770
#	42869
#	55507
#	64691
#	83938
#	111011
#	128875
#	157725
#	179690
#	207938
#	240343
#	249747
#
# Disc length: 3409 seconds
#
# Revision: 1
# Processed by: cddbd v1.5.2PL0 Copyright (c) Steve Scherf et al.
# Submitted via: CDex 1.70beta2
#
DISCID=a50d4f0d
DTITLE=Alice Babs - A Church Blues for Alice
DYEAR=2000
DGENRE=Christian
TTITLE0=Come Sunday
TTITLE1=Tankar Kring En vallåt
TTITLE2=Kristallen Den Fina
TTITLE3=Is God A Three Letter Word
TTITLE4=Blood Count
TTITLE5=Till Minne
TTITLE6=BB Blues
TTITLE7=Shall I Compare
TTITLE8=A Flower Is A Lovesome Thing
TTITLE9=Faraway Star/Allt Under Himmelens Fäste
TTITLE10=A Blues For Alice
TTITLE11=Improvisation
TTITLE12=Improvisation II
EXTD=YEAR: 2000
EXTT0=
EXTT1=
EXTT2=
EXTT3=
EXTT4=
EXTT5=
EXTT6=
EXTT7=
EXTT8=
EXTT9=
EXTT10=
EXTT11=
EXTT12=
PLAYORDER=
